<?xml version="1.0" standalone="no"?> <!DOCTYPE svg PUBLIC "-//W3C//DTD SVG 20010904//EN" "http://www.w3.org/TR/2001/REC-SVG-20010904/DTD/svg10.dtd"> <svg version="1.0" xmlns="http://www.w3.org/2000/svg" width="158.000000pt" height="151.000000pt" viewBox="0 0 158.000000 151.000000" preserveAspectRatio="xMidYMid meet"> <g transform="translate(0.000000,151.000000) scale(0.100000,-0.100000)" fill="#fbff29" stroke="none"> <path d="M728 1423 c7 -3 16 -2 19 1 4 3 -2 6 -13 5 -11 0 -14 -3 -6 -6z"/> <path d="M790 1387 c0 -22 -6 -24 -82 -36 -133 -20 -233 -73 -332 -174 -45 -45 -93 -105 -109 -134 -30 -57 -67 -188 -67 -240 0 -29 -3 -33 -25 -33 -28 0 -35 -19 -7 -21 9 -1 20 -1 23 -1 4 1 9 -29 13 -65 14 -132 91 -281 194 -373 94 -84 252 -152 343 -149 25 1 28 3 11 6 -16 3 -22 9 -18 20 3 8 6 17 6 19 0 2 9 4 19 4 15 0 20 -10 26 -50 7 -54 25 -68 25 -20 0 17 -5 30 -12 30 -6 0 -9 3 -6 6 3 3 15 0 26 -7 34 -21 146 2 247 51 159 76 276 222 321 399 9 35 14 80 12 100 -3 35 -2 37 24 33 16 -3 28 0 28 7 0 6 -11 11 -25 11 -22 0 -25 5 -25 33 0 51 -28 153 -56 210 -97 192 -256 310 -456 340 -63 9 -78 14 -78 28 0 10 -4 21 -10 24 -6 3 -10 -4 -10 -18z m-7 -54 c-9 -25 -25 -34 -40 -21 -23 19 -15 38 17 38 24 0 28 -3 23 -17z m79 -15 c-2 -22 2 -26 35 -31 124 -17 276 -116 350 -228 26 -39 40 -51 30 -25 -5 13 10 36 23 36 11 0 31 -51 24 -62 -3 -5 -14 -8 -24 -5 -16 4 -17 1 -8 -27 6 -17 14 -35 18 -41 4 -5 9 -18 11 -27 3 -15 6 -13 15 6 9 19 8 23 -1 20 -6 -3 -17 7 -24 22 -10 22 -9 29 1 35 22 14 26 11 42 -33 31 -88 31 -91 2 -86 -22 4 -26 2 -25 -16 0 -11 3 -15 6 -8 13 31 53 6 53 -34 0 -20 -38 -17 -43 4 -4 13 -5 11 -6 -5 -1 -18 4 -23 24 -23 14 0 25 -3 25 -8 0 -4 -14 -7 -32 -7 -19 0 -33 -6 -36 -15 -4 -12 -2 -13 9 -3 10 8 20 9 29 3 8 -6 11 -10 5 -11 -5 0 -18 -2 -27 -4 -10 -2 -20 0 -23 5 -3 4 -23 0 -45 -11 -59 -29 -68 -26 -66 24 1 23 4 47 8 52 3 6 5 30 3 55 l-3 45 13 -30 c8 -16 14 -42 15 -57 0 -22 -3 -26 -17 -21 -16 6 -17 5 -3 -11 8 -10 16 -14 18 -8 2 6 15 4 33 -5 42 -21 56 -12 51 31 -2 20 -7 36 -11 36 -4 0 -6 -13 -3 -30 4 -31 1 -34 -35 -24 -15 4 -23 14 -23 27 0 27 -32 127 -39 122 -3 -1 -6 13 -6 33 l0 36 -59 -2 c-32 -1 -61 -3 -63 -5 -2 -3 2 -83 8 -178 7 -96 10 -185 6 -200 -6 -23 -13 -26 -117 -44 -61 -10 -114 -15 -118 -11 -4 4 -6 94 -4 198 2 160 5 193 18 203 14 10 14 21 -5 110 -12 54 -24 102 -27 107 -16 25 120 -15 185 -54 20 -12 60 -45 90 -73 46 -42 51 -45 31 -16 -49 71 -209 161 -286 161 -17 0 -23 7 -26 30 -5 35 1 37 82 15 143 -38 275 -141 338 -265 18 -36 30 -54 27 -40 -18 68 -113 187 -191 241 -52 36 -152 74 -217 84 -46 7 -60 18 -34 28 7 3 5 6 -5 6 -11 1 -18 9 -18 21 0 15 5 19 23 16 17 -3 21 -9 19 -28z m-142 18 c0 -2 3 -11 6 -19 4 -11 -2 -17 -18 -20 -13 -3 -4 -4 20 -2 23 2 42 -1 42 -6 0 -5 -9 -9 -20 -9 -26 0 -24 0 -62 -11 -18 -6 -42 -12 -53 -14 -55 -12 -136 -65 -201 -129 -81 -81 -126 -164 -146 -269 -7 -37 -16 -67 -20 -67 -11 0 -10 16 7 89 30 126 125 263 227 327 42 27 42 27 28 54 -8 15 -5 21 19 33 26 13 30 13 35 0 9 -24 7 -33 -8 -33 -8 0 -17 -4 -21 -10 -3 -5 7 -5 25 1 26 9 28 13 19 31 -12 22 -5 32 27 42 15 5 24 2 28 -10 8 -20 -1 -34 -21 -34 -9 0 -14 -2 -11 -5 3 -4 17 -3 32 1 22 5 24 9 15 25 -5 11 -7 24 -4 29 6 10 55 15 55 6z m208 -4 c23 -15 4 -39 -27 -34 -22 3 -28 8 -24 23 6 20 29 25 51 11z m150 -56 c57 -29 64 -36 53 -54 -6 -10 -13 -10 -35 -1 -20 9 -25 17 -20 33 3 14 2 17 -4 8 -6 -9 -18 -11 -36 -6 -22 5 -27 11 -23 28 5 18 4 19 -6 5 -15 -24 -67 -6 -60 21 5 17 8 17 42 5 21 -7 60 -24 89 -39z m-261 -4 c2 -15 4 -39 5 -54 1 -16 6 -28 11 -28 5 0 7 -6 4 -12 -2 -7 0 -21 5 -31 9 -17 18 -79 18 -125 0 -13 5 -20 10 -17 16 10 11 -7 -6 -19 -16 -12 -18 -30 -28 -237 -3 -58 -8 -114 -12 -125 -4 -14 -3 -15 4 -6 7 10 11 2 16 -27 3 -23 10 -40 14 -40 31 5 18 -6 -26 -21 -42 -15 -57 -17 -72 -8 -17 11 -17 13 -2 24 14 10 17 29 15 111 -1 69 1 91 7 73 7 -18 8 -14 3 15 -4 22 -8 72 -8 110 0 39 -4 73 -9 77 -6 4 -4 13 4 22 11 14 10 16 -4 10 -16 -6 -17 -23 -10 -207 l7 -200 -47 6 c-67 9 -146 34 -183 57 l-33 20 -2 142 c-1 79 -2 163 -3 188 0 46 -14 58 -43 37 -7 -6 -15 -7 -18 -4 -4 3 17 30 45 60 45 48 98 81 201 126 24 11 24 11 -5 6 -76 -15 -205 -104 -242 -166 -9 -16 -23 -29 -30 -29 -8 0 -13 -12 -13 -29 0 -17 -5 -33 -10 -36 -6 -4 -7 -12 -3 -18 5 -7 9 -37 10 -67 1 -30 3 -67 6 -82 6 -40 -4 -51 -37 -38 -15 5 -32 8 -37 4 -5 -3 -9 0 -9 6 0 6 -5 8 -12 4 -7 -4 -8 -3 -4 4 5 8 -2 10 -22 6 -18 -4 -32 -1 -37 6 -5 9 -1 10 15 5 16 -5 20 -4 15 5 -4 6 -18 10 -31 7 -21 -4 -24 0 -24 24 0 41 10 59 32 59 14 0 18 -5 14 -16 -3 -9 -6 -22 -6 -29 0 -7 -8 -16 -18 -18 -14 -4 -13 -5 3 -6 12 0 26 -6 31 -11 7 -7 19 -8 37 -1 18 7 27 7 31 -2 8 -19 29 22 31 62 1 20 6 45 10 56 6 16 5 17 -4 9 -7 -7 -14 -31 -14 -55 -2 -40 -5 -45 -32 -51 -16 -3 -32 -4 -34 -2 -11 11 21 124 53 189 74 149 218 254 385 280 39 6 43 5 38 -10 -4 -9 -7 -23 -7 -31 0 -8 -11 -15 -27 -15 l-28 -2 28 -4 c15 -2 25 -8 22 -13 -5 -8 -45 -194 -45 -209 0 -4 12 -8 28 -9 24 -1 25 0 10 11 -9 8 -16 20 -14 28 1 8 9 41 16 74 8 33 13 66 11 73 -1 6 3 12 9 12 7 0 9 8 5 20 -4 11 -2 20 4 20 6 0 7 7 4 17 -5 12 -3 14 7 8 8 -5 11 -4 6 3 -3 5 -3 12 1 15 5 2 2 2 -4 1 -7 -2 -13 3 -13 11 0 8 8 15 17 15 13 0 14 3 5 12 -7 7 -12 17 -12 22 0 22 25 -17 27 -42z m-293 -18 c6 -17 -18 -43 -40 -44 -23 0 -23 29 -1 45 27 19 33 19 41 -1z m-60 -39 c8 -23 -74 -96 -99 -88 -17 5 -18 3 -8 -9 17 -20 -10 -60 -35 -51 -13 5 -14 3 -5 -7 8 -9 9 -19 1 -36 -12 -26 -16 -28 -37 -15 -12 8 -5 23 33 80 60 89 71 98 93 80 15 -13 15 -12 6 5 -9 16 -7 23 11 37 26 23 32 23 40 4z m727 -28 c-17 -17 -13 -31 5 -17 13 11 19 10 37 -9 15 -16 18 -25 10 -28 -7 -3 -13 -10 -13 -16 0 -8 4 -7 12 1 9 9 16 8 30 -5 10 -9 18 -22 18 -29 0 -33 -25 -19 -89 48 -52 54 -67 75 -60 85 9 10 16 9 35 -4 18 -11 22 -19 15 -26z m-908 -193 c25 -9 2 -63 -24 -57 -22 6 -22 5 -7 38 13 28 11 27 31 19z m197 -15 c0 -6 -9 -7 -20 -4 -20 6 -20 2 -19 -182 2 -211 5 -237 34 -240 67 -5 245 -37 274 -49 30 -13 40 -12 98 6 71 22 134 31 228 33 l60 2 0 226 c0 197 2 226 15 221 8 -3 18 -10 22 -16 4 -6 8 -111 8 -232 l0 -222 -31 -6 c-16 -3 -83 -10 -147 -16 -64 -6 -141 -18 -169 -27 -42 -13 -58 -14 -78 -5 -26 12 -131 30 -290 51 l-50 6 -3 223 c-2 157 0 222 8 222 6 0 9 4 5 9 -3 5 5 11 17 13 27 5 38 1 38 -13z m639 9 c8 -37 11 -347 4 -366 -6 -14 -8 27 -7 105 0 72 -4 151 -11 181 -11 47 -11 53 3 47 12 -4 13 -3 3 9 -7 8 -10 20 -6 26 8 13 11 13 14 -2z m-642 -100 c6 -283 0 -264 93 -305 30 -13 62 -25 72 -26 10 -2 21 -7 25 -11 5 -5 -5 -5 -22 -1 -16 4 -40 7 -53 6 -13 0 -21 3 -18 8 3 5 -1 12 -10 15 -8 3 -13 2 -10 -2 3 -4 -11 -8 -30 -8 -20 0 -29 3 -21 8 8 5 5 8 -9 8 -12 0 -25 7 -28 16 -5 13 -1 15 21 11 l28 -6 -26 12 -27 12 -1 158 c-1 135 2 177 12 177 1 0 3 -33 4 -72z m-207 28 c0 -28 -12 -46 -32 -46 -14 0 -18 5 -14 16 3 9 6 22 6 30 0 8 9 14 20 14 11 0 20 -6 20 -14z m1040 -176 c0 -5 -5 -10 -11 -10 -5 0 -7 5 -4 10 3 6 8 10 11 10 2 0 4 -4 4 -10z m-1070 -10 c-9 -6 -10 -10 -3 -10 18 0 20 -53 3 -68 -13 -11 -13 -11 0 -7 11 4 20 -4 27 -22 l12 -28 -5 30 c-16 97 -16 105 -5 105 6 0 11 -12 12 -27 1 -16 5 -39 10 -53 6 -17 7 -10 3 26 l-5 51 30 -5 c25 -3 31 -9 32 -31 0 -14 4 -35 9 -46 6 -14 7 -6 3 23 -4 32 -2 42 8 42 10 0 14 -15 14 -54 0 -31 -3 -49 -8 -43 -5 7 -5 -1 -1 -18 4 -16 7 -42 6 -57 -1 -21 5 -29 28 -36 15 -6 30 -9 32 -6 2 2 31 -1 64 -6 32 -6 79 -13 104 -16 80 -10 105 -15 111 -22 9 -11 51 -224 44 -230 -12 -12 -135 20 -205 54 -101 50 -203 152 -245 246 -28 63 -32 67 -56 62 -26 -5 -27 -3 -38 59 -16 90 -15 97 12 97 18 0 19 -2 7 -10z m1150 -7 c0 -32 -22 -143 -29 -143 -21 1 -33 20 -27 45 5 20 11 25 24 21 16 -6 16 -5 0 7 -16 13 -16 29 -2 75 5 18 34 15 34 -5z m-56 -40 c-31 -223 -206 -408 -429 -456 -18 -4 -17 -5 3 -6 12 0 38 5 57 13 32 14 34 13 41 -6 10 -31 -47 -56 -59 -25 -4 7 -6 6 -6 -4 -1 -24 -52 -31 -68 -11 -12 16 -13 16 -7 0 5 -14 1 -18 -20 -18 -19 0 -26 5 -26 20 0 16 7 20 33 22 l32 1 -32 4 -32 4 14 47 c7 26 19 79 26 119 l12 71 101 12 c56 7 120 16 143 20 l41 7 -20 -28 c-45 -61 -135 -117 -231 -144 l-52 -15 44 5 c61 8 169 67 225 122 25 26 46 50 46 54 0 4 9 9 20 12 14 4 20 14 20 35 0 16 7 43 15 60 9 17 19 50 23 74 7 38 11 43 36 46 l29 4 -8 -48 c-16 -109 -74 -214 -166 -299 -33 -30 -56 -55 -51 -55 20 0 141 133 170 187 34 65 62 153 62 195 0 15 5 28 11 28 7 0 8 -16 3 -47z m-98 -15 c-11 -66 -24 -77 -21 -17 3 64 2 59 16 59 8 0 9 -13 5 -42z m-116 -93 c0 -16 -35 -20 -67 -8 -15 6 -13 9 12 14 48 11 55 10 55 -6z m-817 -52 c20 -43 24 -59 14 -65 -18 -11 -21 -10 -35 13 -10 16 -11 24 -1 35 9 12 9 13 -3 9 -20 -8 -45 45 -26 56 21 14 23 12 51 -48z m724 51 c-3 -3 -12 -4 -19 -1 -8 3 -5 6 6 6 11 1 17 -2 13 -5z m326 0 c3 -3 1 -19 -5 -35 -8 -24 -13 -27 -29 -19 -16 9 -17 14 -7 35 11 24 28 32 41 19z m-626 -30 c-3 -3 -12 -4 -19 -1 -8 3 -5 6 6 6 11 1 17 -2 13 -5z m583 -82 c-35 -61 -46 -73 -64 -66 -9 4 -16 9 -14 13 2 3 17 29 33 58 25 43 33 50 48 42 17 -10 17 -12 -3 -47z m-462 -33 c-11 -6 -15 -24 -14 -64 1 -39 -2 -54 -11 -51 -6 3 -14 -1 -17 -9 -3 -10 0 -12 12 -8 14 5 15 4 6 -8 -6 -8 -10 -24 -9 -37 1 -13 -2 -25 -7 -28 -4 -3 -6 -10 -3 -15 4 -5 1 -9 -6 -9 -7 0 -9 10 -7 25 3 13 1 22 -3 19 -5 -3 -9 -1 -9 5 0 5 -3 18 -7 28 -6 16 -5 16 10 4 22 -17 22 -8 1 14 -15 14 -26 62 -25 108 0 9 -4 15 -9 12 -5 -3 -8 4 -7 15 2 24 0 24 40 3 30 -15 31 -15 18 1 -13 16 -12 17 15 12 16 -4 23 -3 15 0 -11 5 -11 8 0 15 9 5 17 2 23 -8 6 -11 4 -18 -6 -24z m-478 -20 c0 -19 -34 -17 -50 3 -18 21 -18 24 -2 36 14 11 19 9 34 -10 10 -13 18 -26 18 -29z m36 -30 c14 -16 15 -23 7 -26 -7 -3 -13 -9 -13 -15 0 -6 6 -5 16 2 13 11 19 10 36 -8 18 -18 19 -23 8 -37 -12 -14 -18 -11 -61 31 -37 37 -46 51 -37 61 14 18 22 16 44 -8z m832 9 c9 -9 3 -22 -30 -55 -23 -24 -47 -43 -54 -43 -21 0 -23 28 -4 45 16 15 22 15 35 5 9 -8 15 -8 15 -2 0 6 -5 14 -11 17 -7 5 -4 14 7 26 20 22 26 23 42 7z m-715 -126 c-6 -14 -4 -15 8 -6 9 8 22 9 37 3 24 -9 25 -10 16 -33 -5 -14 -14 -11 -63 15 -69 38 -66 35 -52 53 11 14 16 13 36 0 16 -10 22 -21 18 -32z m597 -2 c-23 -18 -26 -18 -38 -2 -11 14 -9 19 10 34 20 15 25 15 38 2 13 -13 12 -17 -10 -34z m-47 -9 c6 -24 -41 -50 -54 -29 -13 19 -11 24 14 36 31 15 34 14 40 -7z m-415 -25 c1 -2 0 -11 -4 -20 -5 -13 -13 -16 -33 -11 -33 8 -35 11 -27 31 5 12 13 14 34 9 15 -4 28 -8 30 -9z m48 -12 c15 -4 20 -11 17 -25 -4 -15 -11 -17 -32 -12 -33 8 -35 9 -28 28 7 16 12 18 43 9z"/> <path d="M897 1244 c-8 -8 1 -24 14 -24 5 0 9 7 9 15 0 15 -12 20 -23 9z"/> <path d="M1000 1195 c0 -9 5 -15 11 -13 6 2 11 8 11 13 0 5 -5 11 -11 13 -6 2 -11 -4 -11 -13z"/> <path d="M1095 1150 c-4 -6 -3 -16 3 -22 6 -6 12 -6 17 2 4 6 3 16 -3 22 -6 6 -12 6 -17 -2z"/> <path d="M1175 1070 c-8 -13 -1 -24 14 -19 6 3 7 10 2 18 -6 10 -10 10 -16 1z"/> <path d="M1005 1005 c-58 -27 -57 -29 9 -11 28 7 52 18 54 24 5 17 -6 14 -63 -13z"/> <path d="M1230 964 c0 -8 5 -12 10 -9 6 3 10 10 10 16 0 5 -4 9 -10 9 -5 0 -10 -7 -10 -16z"/> <path d="M1262 869 c2 -6 8 -10 13 -10 5 0 11 4 13 10 2 6 -4 11 -13 11 -9 0 -15 -5 -13 -11z"/> <path d="M1052 730 c0 -14 2 -19 5 -12 2 6 2 18 0 25 -3 6 -5 1 -5 -13z"/> <path d="M680 1235 c0 -8 7 -15 15 -15 9 0 12 6 9 15 -4 8 -10 15 -15 15 -5 0 -9 -7 -9 -15z"/> <path d="M577 1204 c-8 -8 1 -24 14 -24 5 0 9 7 9 15 0 15 -12 20 -23 9z"/> <path d="M786 1185 c4 -8 11 -15 16 -15 6 0 5 6 -2 15 -7 8 -14 15 -16 15 -2 0 -1 -7 2 -15z"/> <path d="M482 1139 c2 -6 8 -10 13 -10 5 0 11 4 13 10 2 6 -4 11 -13 11 -9 0 -15 -5 -13 -11z"/> <path d="M411 1071 c-10 -6 -10 -10 -1 -16 13 -8 24 -1 19 14 -3 6 -10 7 -18 2z"/> <path d="M785 1020 c10 -11 20 -20 23 -20 3 0 -3 9 -13 20 -10 11 -20 20 -23 20 -3 0 3 -9 13 -20z"/> <path d="M525 1020 c3 -5 18 -10 33 -9 24 0 25 1 7 9 -28 12 -47 12 -40 0z"/> <path d="M600 996 c0 -2 9 -6 20 -9 11 -3 20 -1 20 4 0 5 -9 9 -20 9 -11 0 -20 -2 -20 -4z"/> <path d="M777 989 c7 -7 15 -10 18 -7 3 3 -2 9 -12 12 -14 6 -15 5 -6 -5z"/> <path d="M350 964 c0 -8 5 -12 10 -9 6 3 10 10 10 16 0 5 -4 9 -10 9 -5 0 -10 -7 -10 -16z"/> <path d="M531 934 c0 -11 3 -14 6 -6 3 7 2 16 -1 19 -3 4 -6 -2 -5 -13z"/> <path d="M317 874 c-8 -8 1 -24 14 -24 5 0 9 7 9 15 0 15 -12 20 -23 9z"/> <path d="M317 759 c7 -7 15 -10 18 -7 3 3 -2 9 -12 12 -14 6 -15 5 -6 -5z"/> <path d="M312 649 c2 -6 8 -10 13 -10 5 0 11 4 13 10 2 6 -4 11 -13 11 -9 0 -15 -5 -13 -11z"/> <path d="M300 609 c0 -38 74 -162 130 -218 86 -84 247 -161 312 -148 21 4 20 4 -3 6 -15 0 -57 10 -94 22 -55 17 -64 23 -55 34 7 8 9 19 5 25 -9 15 -25 2 -18 -15 8 -22 -7 -18 -52 11 -91 60 -161 145 -202 244 -12 30 -23 48 -23 39z"/> <path d="M350 545 c0 -8 5 -15 10 -15 6 0 10 7 10 15 0 8 -4 15 -10 15 -5 0 -10 -7 -10 -15z"/> <path d="M440 483 c0 -15 93 -99 138 -125 23 -14 40 -26 38 -29 -2 -2 5 -4 17 -5 12 -1 42 -4 67 -8 41 -6 39 -4 -16 13 -80 24 -144 62 -199 118 -25 25 -45 41 -45 36z"/> <path d="M407 464 c-8 -8 1 -24 14 -24 5 0 9 7 9 15 0 15 -12 20 -23 9z"/> <path d="M482 379 c2 -6 8 -10 13 -10 5 0 11 4 13 10 2 6 -4 11 -13 11 -9 0 -15 -5 -13 -11z"/> <path d="M686 293 c-11 -11 -6 -23 9 -23 8 0 15 4 15 9 0 13 -16 22 -24 14z"/> <path d="M1260 650 c0 -5 7 -10 15 -10 8 0 15 5 15 10 0 6 -7 10 -15 10 -8 0 -15 -4 -15 -10z"/> <path d="M1230 545 c0 -8 5 -15 10 -15 6 0 10 7 10 15 0 8 -4 15 -10 15 -5 0 -10 -7 -10 -15z"/> <path d="M1170 455 c0 -8 5 -15 10 -15 6 0 10 7 10 15 0 8 -4 15 -10 15 -5 0 -10 -7 -10 -15z"/> <path d="M1090 375 c0 -8 4 -15 9 -15 5 0 11 7 15 15 3 9 0 15 -9 15 -8 0 -15 -7 -15 -15z"/> <path d="M1000 315 c0 -9 6 -12 15 -9 8 4 12 10 9 15 -8 14 -24 10 -24 -6z"/> <path d="M1005 289 c-33 -16 -49 -27 -35 -23 30 8 100 42 100 49 0 6 6 8 -65 -26z"/> <path d="M896 292 c-3 -6 -1 -14 5 -17 15 -10 25 3 12 16 -7 7 -13 7 -17 1z"/> <path d="M906 251 c-4 -5 3 -7 14 -4 23 6 26 13 6 13 -8 0 -17 -4 -20 -9z"/> <path d="M853 243 c9 -2 23 -2 30 0 6 3 -1 5 -18 5 -16 0 -22 -2 -12 -5z"/> <path d="M1275 450 c3 -5 8 -10 11 -10 2 0 4 5 4 10 0 6 -5 10 -11 10 -5 0 -7 -4 -4 -10z"/> <path d="M778 373 c7 -3 16 -2 19 1 4 3 -2 6 -13 5 -11 0 -14 -3 -6 -6z"/> <path d="M253 1095 c0 -8 4 -12 9 -9 5 3 6 10 3 15 -9 13 -12 11 -12 -6z"/> <path d="M246 421 c-3 -5 2 -15 12 -22 15 -12 16 -12 5 2 -7 9 -10 19 -6 22 3 4 4 7 0 7 -3 0 -8 -4 -11 -9z"/> </g> </svg>